<svg width="58" height="58" viewBox="0 0 58 58" fill="none" xmlns="http://www.w3.org/2000/svg">
<g filter="url(#filter0_d_425_148)">
<rect x="4" width="50" height="50" rx="25" fill="#00A3FF"/>
</g>
<path d="M27 26C27.4295 26.5741 27.9774 27.0491 28.6066 27.3929C29.2357 27.7367 29.9315 27.9411 30.6467 27.9923C31.3618 28.0435 32.0796 27.9403 32.7513 27.6897C33.4231 27.4392 34.0331 27.047 34.54 26.54L37.54 23.54C38.4508 22.597 38.9548 21.3339 38.9434 20.023C38.932 18.712 38.4061 17.4579 37.4791 16.5309C36.5521 15.6038 35.298 15.078 33.987 15.0666C32.676 15.0552 31.413 15.5592 30.47 16.47L28.75 18.18" stroke="white" stroke-width="2" stroke-linecap="round" stroke-linejoin="round"/>
<path d="M31 24C30.5705 23.4259 30.0226 22.9508 29.3934 22.607C28.7642 22.2633 28.0684 22.0589 27.3533 22.0076C26.6382 21.9564 25.9204 22.0596 25.2486 22.3102C24.5769 22.5608 23.9668 22.9529 23.46 23.46L20.46 26.46C19.5492 27.403 19.0452 28.666 19.0566 29.977C19.068 31.288 19.5938 32.542 20.5209 33.4691C21.4479 34.3961 22.702 34.922 24.0129 34.9334C25.3239 34.9447 26.5869 34.4408 27.53 33.53L29.24 31.82" stroke="white" stroke-width="2" stroke-linecap="round" stroke-linejoin="round"/>
<defs>
<filter id="filter0_d_425_148" x="0" y="0" width="58" height="58" filterUnits="userSpaceOnUse" color-interpolation-filters="sRGB">
<feFlood flood-opacity="0" result="BackgroundImageFix"/>
<feColorMatrix in="SourceAlpha" type="matrix" values="0 0 0 0 0 0 0 0 0 0 0 0 0 0 0 0 0 0 127 0" result="hardAlpha"/>
<feOffset dy="4"/>
<feGaussianBlur stdDeviation="2"/>
<feComposite in2="hardAlpha" operator="out"/>
<feColorMatrix type="matrix" values="0 0 0 0 0 0 0 0 0 0 0 0 0 0 0 0 0 0 0.25 0"/>
<feBlend mode="normal" in2="BackgroundImageFix" result="effect1_dropShadow_425_148"/>
<feBlend mode="normal" in="SourceGraphic" in2="effect1_dropShadow_425_148" result="shape"/>
</filter>
</defs>
</svg>
